<svg width="66" height="66" viewBox="0 0 66 66" fill="none" xmlns="http://www.w3.org/2000/svg">
<g filter="url(#filter0_d_545_768)">
<path fill-rule="evenodd" clip-rule="evenodd" d="M16.6875 0C17.1682 0 17.6292 0.190959 17.9691 0.530869C18.309 0.870779 18.5 1.3318 18.5 1.8125V3.625H47.5V1.8125C47.5 1.3318 47.691 0.870779 48.0309 0.530869C48.3708 0.190959 48.8318 0 49.3125 0C49.7932 0 50.2542 0.190959 50.5941 0.530869C50.934 0.870779 51.125 1.3318 51.125 1.8125V3.625H54.75C56.6728 3.625 58.5169 4.38884 59.8765 5.74848C61.2362 7.10811 62 8.95218 62 10.875V50.75C62 52.6728 61.2362 54.5169 59.8765 55.8765C58.5169 57.2362 56.6728 58 54.75 58H11.25C9.32718 58 7.48311 57.2362 6.12348 55.8765C4.76384 54.5169 4 52.6728 4 50.75V10.875C4 8.95218 4.76384 7.10811 6.12348 5.74848C7.48311 4.38884 9.32718 3.625 11.25 3.625H14.875V1.8125C14.875 1.3318 15.066 0.870779 15.4059 0.530869C15.7458 0.190959 16.2068 0 16.6875 0ZM11.25 12.6875C11.25 11.687 12.1345 10.875 13.2256 10.875H52.7744C53.8619 10.875 54.75 11.687 54.75 12.6875V16.3125C54.75 17.313 53.8655 18.125 52.7708 18.125H13.2256C12.1381 18.125 11.25 17.313 11.25 16.3125V12.6875Z" fill="white"/>
</g>
<defs>
<filter id="filter0_d_545_768" x="0" y="0" width="66" height="66" filterUnits="userSpaceOnUse" color-interpolation-filters="sRGB">
<feFlood flood-opacity="0" result="BackgroundImageFix"/>
<feColorMatrix in="SourceAlpha" type="matrix" values="0 0 0 0 0 0 0 0 0 0 0 0 0 0 0 0 0 0 127 0" result="hardAlpha"/>
<feOffset dy="4"/>
<feGaussianBlur stdDeviation="2"/>
<feComposite in2="hardAlpha" operator="out"/>
<feColorMatrix type="matrix" values="0 0 0 0 0 0 0 0 0 0 0 0 0 0 0 0 0 0 0.4 0"/>
<feBlend mode="normal" in2="BackgroundImageFix" result="effect1_dropShadow_545_768"/>
<feBlend mode="normal" in="SourceGraphic" in2="effect1_dropShadow_545_768" result="shape"/>
</filter>
</defs>
</svg>
