<svg width="67" height="67" viewBox="0 0 67 67" fill="none" xmlns="http://www.w3.org/2000/svg">
<g filter="url(#filter0_d_823_288)">
<rect x="6" y="6" width="55" height="55" rx="14" fill="#E61C39"/>
</g>
<path d="M36.0018 22.0746C36.1048 21.6897 36.3564 21.3615 36.7013 21.162C37.0462 20.9626 37.4562 20.9083 37.8412 21.0111C39.794 21.5363 41.5746 22.5653 43.0046 23.9953C44.4345 25.4252 45.4636 27.2059 45.9887 29.1588C46.0397 29.3494 46.0526 29.5481 46.0267 29.7437C46.0008 29.9393 45.9367 30.1279 45.8379 30.2987C45.7392 30.4695 45.6078 30.6192 45.4512 30.7392C45.2946 30.8592 45.1159 30.9472 44.9253 30.9981C44.7347 31.049 44.5359 31.062 44.3403 31.0361C44.1447 31.0102 43.9561 30.9461 43.7853 30.8473C43.6146 30.7486 43.4649 30.6171 43.3449 30.4605C43.2249 30.3039 43.1369 30.1252 43.0859 29.9346C42.6979 28.4915 41.9375 27.1758 40.8808 26.1191C39.8241 25.0624 38.5084 24.302 37.0653 23.914C36.8747 23.863 36.696 23.775 36.5394 23.655C36.3828 23.535 36.2513 23.3853 36.1526 23.2145C36.0538 23.0437 35.9897 22.8552 35.9638 22.6596C35.938 22.464 35.9509 22.2652 36.0018 22.0746ZM46.9818 39.4372C46.7488 41.2497 45.8639 42.9154 44.4925 44.1231C43.121 45.3309 41.3568 45.998 39.5294 46C29.3123 46 21 37.6877 21 27.4705C21.002 25.6431 21.6691 23.8789 22.8768 22.5074C24.0846 21.136 25.7503 20.2511 27.5628 20.0181C28.1011 19.9531 28.6459 20.064 29.1159 20.3343C29.586 20.6045 29.956 21.0196 30.1707 21.5174L32.686 27.3865C32.8492 27.766 32.9157 28.18 32.8797 28.5915C32.8436 29.0029 32.7061 29.3991 32.4795 29.7444L30.5557 32.684C31.4124 34.2963 32.7349 35.613 34.3509 36.4627L37.2428 34.5344C37.5891 34.3026 37.9878 34.1612 38.4027 34.1231C38.8176 34.085 39.2354 34.1513 39.6181 34.316L45.4823 36.8293C45.9804 37.0437 46.3956 37.4137 46.6659 37.8838C46.9362 38.3539 47.047 38.8989 46.9818 39.4372ZM43.937 39.4361L38.6841 37.1848L35.7754 39.1243C35.4148 39.365 34.9979 39.5079 34.5654 39.539C34.133 39.5701 33.6999 39.4883 33.3086 39.3016C30.8778 38.1236 28.9113 36.166 27.7223 33.7406C27.5348 33.3516 27.451 32.9208 27.4791 32.4899C27.5072 32.059 27.6462 31.6427 27.8826 31.2814L29.8184 28.3234L27.5639 23.0629C26.5566 23.2808 25.6542 23.8369 25.0067 24.6388C24.3592 25.4406 24.0057 26.4399 24.0048 27.4705C24.0094 31.5865 25.6465 35.5326 28.557 38.443C31.4674 41.3534 35.4134 42.9906 39.5294 42.9952C40.56 42.9943 41.5592 42.6407 42.3611 41.9932C43.1629 41.3457 43.719 40.4434 43.937 39.4361ZM35.7266 28.6561C36.3411 28.8498 36.8998 29.1889 37.3554 29.6445C37.8111 30.1001 38.1501 30.6588 38.3438 31.2733C38.4029 31.4617 38.4986 31.6365 38.6253 31.7879C38.752 31.9393 38.9073 32.0642 39.0823 32.1555C39.2574 32.2468 39.4487 32.3027 39.6453 32.32C39.842 32.3374 40.0401 32.3158 40.2284 32.2565C40.4167 32.1972 40.5915 32.1014 40.7427 31.9746C40.894 31.8477 41.0187 31.6923 41.1099 31.5172C41.201 31.3421 41.2568 31.1507 41.274 30.954C41.2911 30.7574 41.2694 30.5593 41.2099 30.371C40.8708 29.2954 40.2774 28.3174 39.4799 27.52C38.6825 26.7225 37.7045 26.1291 36.6289 25.79C36.4407 25.7305 36.2425 25.7088 36.0459 25.7259C35.8492 25.7431 35.6579 25.7988 35.4828 25.89C35.3077 25.9812 35.1522 26.1059 35.0254 26.2572C34.8985 26.4084 34.8027 26.5832 34.7434 26.7715C34.6841 26.9598 34.6626 27.1579 34.6799 27.3546C34.6972 27.5512 34.7531 27.7425 34.8445 27.9176C34.9358 28.0926 35.0607 28.2479 35.212 28.3746C35.3634 28.5014 35.5383 28.597 35.7266 28.6561Z" fill="white"/>
<defs>
<filter id="filter0_d_823_288" x="0" y="0" width="67" height="67" filterUnits="userSpaceOnUse" color-interpolation-filters="sRGB">
<feFlood flood-opacity="0" result="BackgroundImageFix"/>
<feColorMatrix in="SourceAlpha" type="matrix" values="0 0 0 0 0 0 0 0 0 0 0 0 0 0 0 0 0 0 127 0" result="hardAlpha"/>
<feOffset/>
<feGaussianBlur stdDeviation="3"/>
<feComposite in2="hardAlpha" operator="out"/>
<feColorMatrix type="matrix" values="0 0 0 0 0 0 0 0 0 0 0 0 0 0 0 0 0 0 0.25 0"/>
<feBlend mode="normal" in2="BackgroundImageFix" result="effect1_dropShadow_823_288"/>
<feBlend mode="normal" in="SourceGraphic" in2="effect1_dropShadow_823_288" result="shape"/>
</filter>
</defs>
</svg>
