<svg width="67" height="67" viewBox="0 0 67 67" fill="none" xmlns="http://www.w3.org/2000/svg">
<g filter="url(#filter0_d_2_1628)">
<rect x="6" y="6" width="55" height="55" rx="14" fill="#E61C39"/>
</g>
<path d="M49.8805 34.3901C49.633 31.6119 49.2252 31.0709 49.0712 30.8674C48.7171 30.3971 48.1505 30.0898 47.5509 29.7674C47.517 29.7494 47.4877 29.7239 47.4654 29.6927C47.4431 29.6615 47.4283 29.6256 47.4222 29.5877C47.4161 29.5499 47.419 29.5111 47.4304 29.4745C47.4419 29.4379 47.4617 29.4045 47.4883 29.3769C47.5994 29.2643 47.6847 29.129 47.7385 28.9803C47.7923 28.8316 47.8132 28.673 47.7998 28.5154C47.774 28.236 47.644 27.9766 47.4358 27.7885C47.2276 27.6004 46.9562 27.4974 46.6756 27.5H45.6029C45.557 27.5003 45.511 27.5033 45.4654 27.5089C45.4341 27.4954 45.4017 27.4845 45.3685 27.4766C44.7331 26.1339 43.8633 24.2956 42.0604 23.3984C39.3863 22.0687 34.4604 22 33.4977 22C32.5351 22 27.6091 22.0687 24.9385 23.3963C23.1356 24.2935 22.2658 26.1319 21.6304 27.4746L21.6249 27.4856C21.5932 27.49 21.5621 27.4979 21.5321 27.5089C21.4865 27.5033 21.4405 27.5003 21.3946 27.5H20.3198C20.0392 27.4974 19.7679 27.6004 19.5597 27.7885C19.3514 27.9766 19.2215 28.236 19.1956 28.5154C19.1834 28.6726 19.2053 28.8306 19.2597 28.9786C19.3142 29.1265 19.4 29.261 19.5112 29.3728C19.5378 29.4004 19.5577 29.4338 19.5691 29.4704C19.5806 29.507 19.5834 29.5457 19.5774 29.5836C19.5713 29.6215 19.5565 29.6574 19.5342 29.6886C19.5118 29.7198 19.4826 29.7453 19.4487 29.7632C18.8491 30.0877 18.2797 30.3951 17.9284 30.8632C17.7743 31.0695 17.3673 31.6078 17.1191 34.386C16.9815 35.9494 16.9609 37.5678 17.0689 38.61C17.2951 40.7756 17.7193 42.0846 17.7372 42.1389C17.8023 42.3366 17.9222 42.5117 18.0828 42.644C18.2435 42.7763 18.4384 42.8603 18.6448 42.8862V42.9C18.6448 43.1917 18.7608 43.4715 18.9671 43.6778C19.1734 43.8841 19.4532 44 19.745 44H23.5956C23.8874 44 24.1672 43.8841 24.3735 43.6778C24.5798 43.4715 24.6957 43.1917 24.6957 42.9C25.2878 42.9 25.6996 42.7941 26.1363 42.6814C26.7666 42.5115 27.411 42.3986 28.0615 42.3438C30.1594 42.1438 32.2456 42.075 33.4977 42.075C34.7244 42.075 36.9027 42.1438 39.004 42.3438C39.6572 42.3987 40.304 42.5121 40.9369 42.6828C41.3549 42.79 41.7517 42.889 42.3011 42.8993C42.3011 43.1911 42.417 43.4708 42.6233 43.6771C42.8296 43.8834 43.1095 43.9993 43.4012 43.9993H47.2518C47.5436 43.9993 47.8234 43.8834 48.0297 43.6771C48.2361 43.4708 48.352 43.1911 48.352 42.8993V42.8911C48.559 42.8656 48.7544 42.7818 48.9156 42.6495C49.0768 42.5172 49.197 42.3418 49.2624 42.1438C49.2802 42.0894 49.7045 40.7804 49.9307 38.6148C50.0387 37.5719 50.0194 35.9563 49.8805 34.3901V34.3901ZM23.619 28.4151C24.169 27.2463 24.7982 25.9236 25.9183 25.366C27.5369 24.5603 30.8917 24.1972 33.4977 24.1972C36.1037 24.1972 39.4585 24.5575 41.0772 25.366C42.1973 25.9236 42.8237 27.247 43.3765 28.4151L43.4452 28.5642C43.4855 28.6492 43.5032 28.743 43.4969 28.8367C43.4905 28.9305 43.4603 29.0211 43.409 29.0998C43.3577 29.1785 43.287 29.2428 43.2038 29.2865C43.1206 29.3302 43.0276 29.3518 42.9337 29.3494C40.6488 29.2875 35.8356 29.0895 33.4977 29.0895C31.1599 29.0895 26.3467 29.2923 24.0583 29.3542C23.9644 29.3566 23.8714 29.335 23.7882 29.2913C23.705 29.2476 23.6344 29.1833 23.5831 29.1046C23.5318 29.0259 23.5015 28.9353 23.4951 28.8416C23.4888 28.7478 23.5065 28.654 23.5468 28.5691C23.5708 28.5182 23.5963 28.4666 23.619 28.4151V28.4151ZM24.4393 33.8896C23.2565 34.032 22.0661 34.1022 20.8747 34.1C20.1459 34.1 19.3943 33.8938 19.2548 33.2448C19.1592 32.8082 19.1695 32.5628 19.2211 32.3159C19.2644 32.1063 19.3331 31.9536 19.6769 31.9C20.5708 31.7625 21.0707 31.9351 22.5339 32.3661C23.5041 32.6514 24.2041 33.0316 24.6029 33.3328C24.803 33.4813 24.6964 33.869 24.4393 33.8896ZM39.6614 39.5271C38.7565 39.6303 36.9467 39.5924 33.5183 39.5924C30.09 39.5924 28.2809 39.6303 27.376 39.5271C26.4422 39.4233 25.252 38.5406 26.0648 37.7541C26.6059 37.2357 27.8683 36.8479 29.5495 36.63C31.2307 36.4121 31.9424 36.3 33.5115 36.3C35.0806 36.3 35.72 36.3688 37.4734 36.6307C39.2268 36.8926 40.5518 37.2852 40.9582 37.7548C41.6994 38.5963 40.5945 39.4178 39.6614 39.5312V39.5271ZM47.7407 33.2441C47.6032 33.8958 46.8468 34.0993 46.1207 34.0993C44.9066 34.0996 43.6934 34.0294 42.4874 33.8889C42.277 33.869 42.1794 33.4998 42.3925 33.3321C42.7852 33.0234 43.4927 32.6508 44.4615 32.3654C45.9247 31.9344 46.7684 31.7618 47.4932 31.9055C47.6699 31.9406 47.7634 32.1303 47.7744 32.2493C47.8229 32.5804 47.8115 32.9176 47.7407 33.2448V33.2441Z" fill="white"/>
<defs>
<filter id="filter0_d_2_1628" x="0" y="0" width="67" height="67" filterUnits="userSpaceOnUse" color-interpolation-filters="sRGB">
<feFlood flood-opacity="0" result="BackgroundImageFix"/>
<feColorMatrix in="SourceAlpha" type="matrix" values="0 0 0 0 0 0 0 0 0 0 0 0 0 0 0 0 0 0 127 0" result="hardAlpha"/>
<feOffset/>
<feGaussianBlur stdDeviation="3"/>
<feComposite in2="hardAlpha" operator="out"/>
<feColorMatrix type="matrix" values="0 0 0 0 0 0 0 0 0 0 0 0 0 0 0 0 0 0 0.25 0"/>
<feBlend mode="normal" in2="BackgroundImageFix" result="effect1_dropShadow_2_1628"/>
<feBlend mode="normal" in="SourceGraphic" in2="effect1_dropShadow_2_1628" result="shape"/>
</filter>
</defs>
</svg>
