<svg width="32" height="26" viewBox="0 0 32 26" fill="none" xmlns="http://www.w3.org/2000/svg">
<path d="M2.18602 17.8397H29.5505C30.1318 17.8397 30.603 17.3685 30.603 16.7872V2.0525C30.603 1.47123 30.1318 1.00001 29.5505 1.00001H2.18602C1.60475 1.00001 1.13354 1.47123 1.13354 2.0525V16.7872C1.13354 17.3685 1.60475 17.8397 2.18602 17.8397Z" stroke="#E61C39" stroke-width="1.83831" stroke-linejoin="round"/>
<path d="M3.23828 20.9971H28.4978" stroke="#E61C39" stroke-width="1.83831" stroke-linecap="round" stroke-linejoin="round"/>
<path d="M5.34375 24.1546H26.3934" stroke="#E61C39" stroke-width="1.83831" stroke-linecap="round" stroke-linejoin="round"/>
<path d="M15.8684 14.6823C18.7747 14.6823 21.1308 12.3262 21.1308 9.41985C21.1308 6.5135 18.7747 4.15744 15.8684 4.15744C12.962 4.15744 10.606 6.5135 10.606 9.41985C10.606 12.3262 12.962 14.6823 15.8684 14.6823Z" stroke="#E61C39" stroke-width="1.83831" stroke-linecap="round" stroke-linejoin="round"/>
<path d="M30.6032 6.26241C29.2076 6.26241 27.869 5.70798 26.8821 4.72108C25.8953 3.73419 25.3408 2.39568 25.3408 1" stroke="#E61C39" stroke-width="1.83831" stroke-linecap="round" stroke-linejoin="round"/>
<path d="M1.1333 6.26241C1.82437 6.26241 2.50867 6.12629 3.14714 5.86183C3.7856 5.59737 4.36573 5.20974 4.85439 4.72108C5.34305 4.23243 5.73067 3.6523 5.99513 3.01384C6.25959 2.37537 6.39571 1.69107 6.39571 1" stroke="#E61C39" stroke-width="1.83831" stroke-linecap="round" stroke-linejoin="round"/>
<path d="M30.6032 12.5773C29.2076 12.5773 27.869 13.1317 26.8821 14.1186C25.8953 15.1055 25.3408 16.444 25.3408 17.8397" stroke="#E61C39" stroke-width="1.83831" stroke-linecap="round" stroke-linejoin="round"/>
<path d="M1.1333 12.5773C1.82437 12.5773 2.50867 12.7134 3.14714 12.9778C3.7856 13.2423 4.36573 13.6299 4.85439 14.1186C5.34305 14.6073 5.73067 15.1874 5.99513 15.8258C6.25959 16.4643 6.39571 17.1486 6.39571 17.8397" stroke="#E61C39" stroke-width="1.83831" stroke-linecap="round" stroke-linejoin="round"/>
</svg>
