<svg width="30" height="39" viewBox="0 0 30 39" fill="none" xmlns="http://www.w3.org/2000/svg">
<path d="M5 0C2.23857 0 0 2.18261 0 4.875V34.125C0 36.8175 2.23857 39 5 39H28.75C29.4403 39 30 38.4542 30 37.7812C30 37.1083 29.4403 36.5625 28.75 36.5625H5C3.6193 36.5625 2.5 35.4712 2.5 34.125H27.5C28.8808 34.125 30 33.0337 30 31.6875V4.875C30 2.18261 27.7615 0 25 0H5ZM18.75 13.4062C18.75 15.4255 17.071 17.0625 15 17.0625C12.9289 17.0625 11.25 15.4255 11.25 13.4062C11.25 11.387 12.9289 9.75 15 9.75C17.071 9.75 18.75 11.387 18.75 13.4062ZM7.5 21.3281C7.5 20.3185 8.33947 19.5 9.375 19.5H20.625C21.6605 19.5 22.5 20.3185 22.5 21.3281V21.9375C22.5 24.63 20.2615 26.8125 17.5 26.8125H12.5C9.73857 26.8125 7.5 24.63 7.5 21.9375V21.3281Z" fill="#E61C39"/>
</svg>
