<svg width="41" height="35" viewBox="0 0 41 35" fill="none" xmlns="http://www.w3.org/2000/svg">
<path d="M17.2632 21.875C19.4211 21.875 21.6868 22.225 24.1684 22.8375C22.4205 24.7406 21.5789 26.9719 21.5789 29.5312C21.5789 31.4781 22.1184 33.3156 23.2621 35H0V30.625C0 28.0219 1.96368 25.9219 5.91263 24.325C9.86158 22.7062 13.6595 21.875 17.2632 21.875ZM17.2632 17.5C14.9326 17.5 12.9474 16.6469 11.1779 14.9406C9.45158 13.2344 8.63158 11.1781 8.63158 8.75C8.63158 6.3875 9.45158 4.375 11.1779 2.58125C12.9474 0.83125 14.9326 0 17.2632 0C19.6584 0 21.6868 0.83125 23.37 2.58125C25.0532 4.375 25.8947 6.3875 25.8947 8.75C25.8947 11.1781 25.0532 13.2344 23.37 14.9406C21.6868 16.6469 19.6584 17.5 17.2632 17.5ZM33.4474 13.125H36.6842H41V17.5H36.6842V29.5312C36.6842 30.9817 36.1158 32.3727 35.1041 33.3982C34.0924 34.4238 32.7202 35 31.2895 35C29.8587 35 28.4865 34.4238 27.4748 33.3982C26.4631 32.3727 25.8947 30.9817 25.8947 29.5312C25.8947 28.0808 26.4631 26.6898 27.4748 25.6643C28.4865 24.6387 29.8587 24.0625 31.2895 24.0625C32.0663 24.0625 32.7784 24.2156 33.4474 24.5219V13.125Z" fill="#E61C39"/>
</svg>
