<svg width="34" height="34" viewBox="0 0 34 34" fill="none" xmlns="http://www.w3.org/2000/svg">
<path d="M17 34C26.3888 34 34 26.3888 34 17C34 7.61116 26.3888 0 17 0C7.61116 0 0 7.61116 0 17C0 26.3888 7.61116 34 17 34Z" fill="white"/>
<path d="M17 30.4141C24.4084 30.4141 30.4141 24.4084 30.4141 17C30.4141 9.59162 24.4084 3.58594 17 3.58594C9.59162 3.58594 3.58594 9.59162 3.58594 17C3.58594 24.4084 9.59162 30.4141 17 30.4141Z" fill="white" stroke="black" stroke-width="3"/>
<path d="M16.5662 7.28097C15.6856 11.5452 15.6848 15.4199 16.0449 19.4238C15.4537 19.2383 14.8152 19.1423 14.1696 19.1418C11.5848 19.1418 9.48926 20.6389 9.48926 22.4857C9.48926 24.3325 11.5848 25.8297 14.1696 25.8296C16.7544 25.8296 18.8496 24.3325 18.8497 22.4857C18.4456 19.0504 18.131 15.4116 18.2622 12.3702C20.1162 12.4981 23.0166 13.2428 24.4289 14.1037C24.1933 13.264 23.6659 9.94028 23.8926 9.46308C21.6751 7.83533 18.8915 7.24485 16.5662 7.28097V7.28097Z" fill="black"/>
</svg>
