<svg width="46" height="46" viewBox="0 0 46 46" fill="none" xmlns="http://www.w3.org/2000/svg">
<path d="M23 46C35.7025 46 46 35.7025 46 23C46 10.2975 35.7025 0 23 0C10.2975 0 0 10.2975 0 23C0 35.7025 10.2975 46 23 46Z" fill="#E61C39"/>
<path d="M23 41.1485C33.0231 41.1485 41.1484 33.0231 41.1484 23C41.1484 12.9769 33.0231 4.85158 23 4.85158C12.9769 4.85158 4.85156 12.9769 4.85156 23C4.85156 33.0231 12.9769 41.1485 23 41.1485Z" fill="#E61C39" stroke="black" stroke-width="4"/>
<path d="M22.413 9.85086C21.2217 15.6201 21.2206 20.8623 21.7078 26.2793C20.908 26.0285 20.044 25.8986 19.1706 25.8978C15.6735 25.8978 12.8384 27.9233 12.8384 30.422C12.8384 32.9206 15.6735 34.9462 19.1706 34.946C22.6676 34.946 25.5024 32.9206 25.5026 30.422C24.9558 25.7742 24.5301 20.8511 24.7076 16.7363C27.2161 16.9093 31.1401 17.9168 33.0509 19.0816C32.7321 17.9456 32.0186 13.4487 32.3253 12.8031C29.3251 10.6009 25.559 9.80198 22.413 9.85086Z" fill="black"/>
</svg>
