<svg width="32" height="24" viewBox="0 0 32 24" fill="none" xmlns="http://www.w3.org/2000/svg">
<path d="M10.8571 0.571533C8.66072 0.571533 6.85714 2.3751 6.85714 4.57153C6.85714 6.76796 8.66072 8.57153 10.8571 8.57153C13.0536 8.57153 14.8571 6.76796 14.8571 4.57153C14.8571 2.3751 13.0536 0.571533 10.8571 0.571533ZM21.1429 0.571533C18.9464 0.571533 17.1429 2.3751 17.1429 4.57153C17.1429 6.76796 18.9464 8.57153 21.1429 8.57153C23.3393 8.57153 25.1429 6.76796 25.1429 4.57153C25.1429 2.3751 23.3393 0.571533 21.1429 0.571533ZM10.8571 2.85725C11.817 2.85725 12.5714 3.61171 12.5714 4.57153C12.5714 5.53135 11.817 6.28582 10.8571 6.28582C9.89732 6.28582 9.14286 5.53135 9.14286 4.57153C9.14286 3.61171 9.89732 2.85725 10.8571 2.85725ZM21.1429 2.85725C22.1027 2.85725 22.8571 3.61171 22.8571 4.57153C22.8571 5.53135 22.1027 6.28582 21.1429 6.28582C20.183 6.28582 19.4286 5.53135 19.4286 4.57153C19.4286 3.61171 20.183 2.85725 21.1429 2.85725ZM5.71429 7.42868C3.20089 7.42868 1.14286 9.48671 1.14286 12.0001C1.14286 13.2724 1.6875 14.4197 2.53571 15.2501C1.01339 16.2814 0 18.0358 0 20.0001H2.28571C2.28571 18.0939 3.80804 16.5715 5.71429 16.5715C7.62054 16.5715 9.14286 18.0939 9.14286 20.0001H11.4286C11.4286 18.0358 10.4152 16.2814 8.89286 15.2501C9.74107 14.4197 10.2857 13.2724 10.2857 12.0001C10.2857 9.48671 8.22768 7.42868 5.71429 7.42868ZM11.4286 20.0001C10.7143 20.9555 10.2857 22.1564 10.2857 23.4287H12.5714C12.5714 21.5224 14.0938 20.0001 16 20.0001C17.9063 20.0001 19.4286 21.5224 19.4286 23.4287H21.7143C21.7143 22.1564 21.2857 20.9555 20.5714 20.0001C20.183 19.4822 19.7143 19.0403 19.1786 18.6787C20.0268 17.8483 20.5714 16.701 20.5714 15.4287C20.5714 12.9153 18.5134 10.8572 16 10.8572C13.4866 10.8572 11.4286 12.9153 11.4286 15.4287C11.4286 16.701 11.9732 17.8483 12.8214 18.6787C12.2857 19.0403 11.817 19.4822 11.4286 20.0001ZM20.5714 20.0001H22.8571C22.8571 18.0939 24.3795 16.5715 26.2857 16.5715C28.192 16.5715 29.7143 18.0939 29.7143 20.0001H32C32 18.0358 30.9866 16.2814 29.4643 15.2501C30.3125 14.4197 30.8571 13.2724 30.8571 12.0001C30.8571 9.48671 28.7991 7.42868 26.2857 7.42868C23.7723 7.42868 21.7143 9.48671 21.7143 12.0001C21.7143 13.2724 22.2589 14.4197 23.1071 15.2501C21.5848 16.2814 20.5714 18.0358 20.5714 20.0001ZM5.71429 9.71439C6.99107 9.71439 8 10.7233 8 12.0001C8 13.2769 6.99107 14.2858 5.71429 14.2858C4.4375 14.2858 3.42857 13.2769 3.42857 12.0001C3.42857 10.7233 4.4375 9.71439 5.71429 9.71439ZM26.2857 9.71439C27.5625 9.71439 28.5714 10.7233 28.5714 12.0001C28.5714 13.2769 27.5625 14.2858 26.2857 14.2858C25.0089 14.2858 24 13.2769 24 12.0001C24 10.7233 25.0089 9.71439 26.2857 9.71439ZM16 13.143C17.2768 13.143 18.2857 14.1519 18.2857 15.4287C18.2857 16.7055 17.2768 17.7144 16 17.7144C14.7232 17.7144 13.7143 16.7055 13.7143 15.4287C13.7143 14.1519 14.7232 13.143 16 13.143Z" fill="#A2A2A2"/>
</svg>
