<svg width="35" height="32" viewBox="0 0 35 32" fill="none" xmlns="http://www.w3.org/2000/svg">
<path d="M34.0278 4C34.5649 4 35 3.5525 35 3V1C35 0.4475 34.5649 0 34.0278 0H0.972222C0.435069 0 0 0.4475 0 1V3C0 3.5525 0.435069 4 0.972222 4H1.94323V28H0.972222C0.435069 28 0 28.4475 0 29V31C0 31.5525 0.435069 32 0.972222 32H15.5556V27C15.5556 26.45 15.9931 26 16.5278 26H18.4722C19.0069 26 19.4444 26.45 19.4444 27V32H34.0278C34.5649 32 35 31.5525 35 31V29C35 28.4475 34.5649 28 34.0278 28H33.0556V4H34.0278ZM15.5556 6.8C15.5556 6.4 15.9444 6 16.3333 6H18.6667C19.0556 6 19.4444 6.4 19.4444 6.8V9.2C19.4444 9.6 19.0556 10 18.6667 10H16.3333C15.9444 10 15.5556 9.6 15.5556 9.2V6.8ZM15.5556 12.8C15.5556 12.4 15.9444 12 16.3333 12H18.6667C19.0556 12 19.4444 12.4 19.4444 12.8V15.2C19.4444 15.6 19.0556 16 18.6667 16H16.3333C15.9444 16 15.5556 15.6 15.5556 15.2V12.8ZM7.77778 6.8C7.77778 6.4 8.16667 6 8.55556 6H10.8889C11.2778 6 11.6667 6.4 11.6667 6.8V9.2C11.6667 9.6 11.2778 10 10.8889 10H8.55556C8.16667 10 7.77778 9.6 7.77778 9.2V6.8ZM10.8889 16H8.55556C8.16667 16 7.77778 15.6 7.77778 15.2V12.8C7.77778 12.4 8.16667 12 8.55556 12H10.8889C11.2778 12 11.6667 12.4 11.6667 12.8V15.2C11.6667 15.6 11.2778 16 10.8889 16ZM11.6667 24C11.6667 20.6863 14.2783 18 17.5 18C20.7217 18 23.3333 20.6863 23.3333 24H11.6667ZM27.2222 15.2C27.2222 15.6 26.8333 16 26.4444 16H24.1111C23.7222 16 23.3333 15.6 23.3333 15.2V12.8C23.3333 12.4 23.7222 12 24.1111 12H26.4444C26.8333 12 27.2222 12.4 27.2222 12.8V15.2ZM27.2222 9.2C27.2222 9.6 26.8333 10 26.4444 10H24.1111C23.7222 10 23.3333 9.6 23.3333 9.2V6.8C23.3333 6.4 23.7222 6 24.1111 6H26.4444C26.8333 6 27.2222 6.4 27.2222 6.8V9.2Z" fill="#E61C39"/>
</svg>
