<svg width="67" height="67" viewBox="0 0 67 67" fill="none" xmlns="http://www.w3.org/2000/svg">
<g filter="url(#filter0_d_831_237)">
<rect x="6" y="6" width="55" height="55" rx="14" fill="#E61C39"/>
</g>
<path d="M45.3056 24.75C45.6892 24.75 46 24.4423 46 24.0625V22.6875C46 22.3077 45.6892 22 45.3056 22H21.6944C21.3108 22 21 22.3077 21 22.6875V24.0625C21 24.4423 21.3108 24.75 21.6944 24.75H22.388V41.25H21.6944C21.3108 41.25 21 41.5577 21 41.9375V43.3125C21 43.6923 21.3108 44 21.6944 44H32.1111V40.5625C32.1111 40.1844 32.4236 39.875 32.8056 39.875H34.1944C34.5764 39.875 34.8889 40.1844 34.8889 40.5625V44H45.3056C45.6892 44 46 43.6923 46 43.3125V41.9375C46 41.5577 45.6892 41.25 45.3056 41.25H44.6111V24.75H45.3056ZM32.1111 26.675C32.1111 26.4 32.3889 26.125 32.6667 26.125H34.3333C34.6111 26.125 34.8889 26.4 34.8889 26.675V28.325C34.8889 28.6 34.6111 28.875 34.3333 28.875H32.6667C32.3889 28.875 32.1111 28.6 32.1111 28.325V26.675ZM32.1111 30.8C32.1111 30.525 32.3889 30.25 32.6667 30.25H34.3333C34.6111 30.25 34.8889 30.525 34.8889 30.8V32.45C34.8889 32.725 34.6111 33 34.3333 33H32.6667C32.3889 33 32.1111 32.725 32.1111 32.45V30.8ZM26.5556 26.675C26.5556 26.4 26.8333 26.125 27.1111 26.125H28.7778C29.0556 26.125 29.3333 26.4 29.3333 26.675V28.325C29.3333 28.6 29.0556 28.875 28.7778 28.875H27.1111C26.8333 28.875 26.5556 28.6 26.5556 28.325V26.675ZM28.7778 33H27.1111C26.8333 33 26.5556 32.725 26.5556 32.45V30.8C26.5556 30.525 26.8333 30.25 27.1111 30.25H28.7778C29.0556 30.25 29.3333 30.525 29.3333 30.8V32.45C29.3333 32.725 29.0556 33 28.7778 33ZM29.3333 38.5C29.3333 36.2218 31.1988 34.375 33.5 34.375C35.8012 34.375 37.6667 36.2218 37.6667 38.5H29.3333ZM40.4444 32.45C40.4444 32.725 40.1667 33 39.8889 33H38.2222C37.9444 33 37.6667 32.725 37.6667 32.45V30.8C37.6667 30.525 37.9444 30.25 38.2222 30.25H39.8889C40.1667 30.25 40.4444 30.525 40.4444 30.8V32.45ZM40.4444 28.325C40.4444 28.6 40.1667 28.875 39.8889 28.875H38.2222C37.9444 28.875 37.6667 28.6 37.6667 28.325V26.675C37.6667 26.4 37.9444 26.125 38.2222 26.125H39.8889C40.1667 26.125 40.4444 26.4 40.4444 26.675V28.325Z" fill="white"/>
<defs>
<filter id="filter0_d_831_237" x="0" y="0" width="67" height="67" filterUnits="userSpaceOnUse" color-interpolation-filters="sRGB">
<feFlood flood-opacity="0" result="BackgroundImageFix"/>
<feColorMatrix in="SourceAlpha" type="matrix" values="0 0 0 0 0 0 0 0 0 0 0 0 0 0 0 0 0 0 127 0" result="hardAlpha"/>
<feOffset/>
<feGaussianBlur stdDeviation="3"/>
<feComposite in2="hardAlpha" operator="out"/>
<feColorMatrix type="matrix" values="0 0 0 0 0 0 0 0 0 0 0 0 0 0 0 0 0 0 0.25 0"/>
<feBlend mode="normal" in2="BackgroundImageFix" result="effect1_dropShadow_831_237"/>
<feBlend mode="normal" in="SourceGraphic" in2="effect1_dropShadow_831_237" result="shape"/>
</filter>
</defs>
</svg>
