<svg width="67" height="67" viewBox="0 0 67 67" fill="none" xmlns="http://www.w3.org/2000/svg">
<g filter="url(#filter0_d_823_284)">
<rect x="6" y="6" width="55" height="55" rx="14" fill="#E61C39"/>
</g>
<path d="M39.75 20C36.3117 20 33.5 22.8608 33.5 26.3592C33.5 27.4108 33.8988 28.4831 34.4115 29.6713C34.9242 30.8596 35.5711 32.1182 36.2344 33.2815C37.5609 35.6083 38.9036 37.5541 38.9036 37.5541L39.75 38.8127L40.5964 37.5541C40.5964 37.5541 41.9391 35.6083 43.2656 33.2815C43.9289 32.1182 44.5758 30.8596 45.0885 29.6713C45.6012 28.4831 46 27.4108 46 26.3592C46 22.8608 43.1883 20 39.75 20ZM29.3008 22.0535L21 25.6637V46L29.3659 42.3236L37.6992 45.5032L46 41.893V32.6522C45.3368 33.9481 44.6003 35.1901 43.9167 36.2955V40.5019L38.7083 42.7541V41.0318L37.1784 38.7796C37.0156 38.5395 36.8244 38.2538 36.625 37.9516V42.8535L30.375 40.4688V24.7032L31.5143 25.1338C31.616 24.4175 31.7992 23.7261 32.0677 23.0803L29.3008 22.0535ZM39.75 22.1197C42.0612 22.1197 43.9167 24.0076 43.9167 26.3592C43.9167 26.7691 43.6644 27.7379 43.2005 28.8102C42.7367 29.8825 42.0815 31.0997 41.4427 32.2217C40.5923 33.7121 40.2261 34.242 39.75 34.9707C39.2739 34.242 38.9077 33.7121 38.0573 32.2217C37.4185 31.0997 36.7633 29.8825 36.2995 28.8102C35.8356 27.7379 35.5833 26.7691 35.5833 26.3592C35.5833 24.0076 37.4388 22.1197 39.75 22.1197ZM28.2917 24.7694V40.5019L23.0833 42.7541V27.0548L28.2917 24.7694ZM39.75 24.7694C38.8874 24.7694 38.1875 25.4815 38.1875 26.3592C38.1875 27.2369 38.8874 27.949 39.75 27.949C40.6126 27.949 41.3125 27.2369 41.3125 26.3592C41.3125 25.4815 40.6126 24.7694 39.75 24.7694Z" fill="white"/>
<defs>
<filter id="filter0_d_823_284" x="0" y="0" width="67" height="67" filterUnits="userSpaceOnUse" color-interpolation-filters="sRGB">
<feFlood flood-opacity="0" result="BackgroundImageFix"/>
<feColorMatrix in="SourceAlpha" type="matrix" values="0 0 0 0 0 0 0 0 0 0 0 0 0 0 0 0 0 0 127 0" result="hardAlpha"/>
<feOffset/>
<feGaussianBlur stdDeviation="3"/>
<feComposite in2="hardAlpha" operator="out"/>
<feColorMatrix type="matrix" values="0 0 0 0 0 0 0 0 0 0 0 0 0 0 0 0 0 0 0.25 0"/>
<feBlend mode="normal" in2="BackgroundImageFix" result="effect1_dropShadow_823_284"/>
<feBlend mode="normal" in="SourceGraphic" in2="effect1_dropShadow_823_284" result="shape"/>
</filter>
</defs>
</svg>
