<svg width="38" height="34" viewBox="0 0 38 34" fill="none" xmlns="http://www.w3.org/2000/svg">
<path d="M3.8 18.8889C1.691 18.8889 0 20.57 0 22.6667V30.2222C0 32.3189 1.691 34 3.8 34H11.4C13.509 34 15.2 32.3189 15.2 30.2222V22.6667C15.2 20.57 13.509 18.8889 11.4 18.8889M11.78 21.7222L13.794 23.7056L6.213 31.1667L1.406 26.35L3.439 24.3667L6.232 27.1811M3.8 0C1.691 0 0 1.68111 0 3.77778V11.3333C0 13.43 1.691 15.1111 3.8 15.1111H11.4C13.509 15.1111 15.2 13.43 15.2 11.3333V3.77778C15.2 1.68111 13.509 0 11.4 0M3.8 3.77778H11.4V11.3333H3.8M19 3.77778H38V7.55556H19M19 30.2222V26.4444H38V30.2222M19 15.1111H38V18.8889H19V15.1111Z" fill="#E61C39"/>
</svg>
