<svg width="67" height="67" viewBox="0 0 67 67" fill="none" xmlns="http://www.w3.org/2000/svg">
<g filter="url(#filter0_d_2_1990)">
<rect x="6" y="6" width="55" height="55" rx="14" fill="#E61C39"/>
</g>
<path d="M25.5385 31.7V30.8H24.6923V31.7H25.5385ZM32.3077 31.7V30.8H31.4615V31.7H32.3077ZM32.3077 38.9H31.4615V39.8H32.3077V38.9ZM44.1538 26.3H45V25.9272L44.7522 25.6636L44.1538 26.3ZM39.0769 20.9L39.6753 20.2636L39.4274 20H39.0769V20.9ZM25.5385 32.6H27.2308V30.8H25.5385V32.6ZM26.3846 39.8V35.3H24.6923V39.8H26.3846ZM26.3846 35.3V31.7H24.6923V35.3H26.3846ZM27.2308 34.4H25.5385V36.2H27.2308V34.4ZM28.0769 33.5C28.0769 33.9971 27.6981 34.4 27.2308 34.4V36.2C28.6327 36.2 29.7692 34.9912 29.7692 33.5H28.0769ZM27.2308 32.6C27.6981 32.6 28.0769 33.0029 28.0769 33.5H29.7692C29.7692 32.0088 28.6327 30.8 27.2308 30.8V32.6ZM31.4615 31.7V38.9H33.1538V31.7H31.4615ZM32.3077 39.8H34V38H32.3077V39.8ZM36.5385 37.1V33.5H34.8462V37.1H36.5385ZM34 30.8H32.3077V32.6H34V30.8ZM36.5385 33.5C36.5385 32.0088 35.402 30.8 34 30.8V32.6C34.4673 32.6 34.8462 33.0029 34.8462 33.5H36.5385ZM34 39.8C35.402 39.8 36.5385 38.5911 36.5385 37.1H34.8462C34.8462 37.5971 34.4673 38 34 38V39.8ZM38.2308 30.8V39.8H39.9231V30.8H38.2308ZM39.0769 32.6H43.3077V30.8H39.0769V32.6ZM39.0769 36.2H41.6154V34.4H39.0769V36.2ZM24.6923 29V22.7H23V29H24.6923ZM43.3077 26.3V29H45V26.3H43.3077ZM25.5385 21.8H39.0769V20H25.5385V21.8ZM38.4785 21.5364L43.5554 26.9364L44.7522 25.6636L39.6753 20.2636L38.4785 21.5364ZM24.6923 22.7C24.6923 22.2029 25.0711 21.8 25.5385 21.8V20C24.1365 20 23 21.2088 23 22.7H24.6923ZM23 41.6V44.3H24.6923V41.6H23ZM25.5385 47H42.4615V45.2H25.5385V47ZM45 44.3V41.6H43.3077V44.3H45ZM42.4615 47C43.8634 47 45 45.7911 45 44.3H43.3077C43.3077 44.797 42.9288 45.2 42.4615 45.2V47ZM23 44.3C23 45.7911 24.1365 47 25.5385 47V45.2C25.0711 45.2 24.6923 44.797 24.6923 44.3H23Z" fill="white"/>
<defs>
<filter id="filter0_d_2_1990" x="0" y="0" width="67" height="67" filterUnits="userSpaceOnUse" color-interpolation-filters="sRGB">
<feFlood flood-opacity="0" result="BackgroundImageFix"/>
<feColorMatrix in="SourceAlpha" type="matrix" values="0 0 0 0 0 0 0 0 0 0 0 0 0 0 0 0 0 0 127 0" result="hardAlpha"/>
<feOffset/>
<feGaussianBlur stdDeviation="3"/>
<feComposite in2="hardAlpha" operator="out"/>
<feColorMatrix type="matrix" values="0 0 0 0 0 0 0 0 0 0 0 0 0 0 0 0 0 0 0.25 0"/>
<feBlend mode="normal" in2="BackgroundImageFix" result="effect1_dropShadow_2_1990"/>
<feBlend mode="normal" in="SourceGraphic" in2="effect1_dropShadow_2_1990" result="shape"/>
</filter>
</defs>
</svg>
