<svg width="67" height="67" viewBox="0 0 67 67" fill="none" xmlns="http://www.w3.org/2000/svg">
<g filter="url(#filter0_d_831_468)">
<rect x="6" y="6" width="55" height="55" rx="14" fill="#E61C39"/>
</g>
<path d="M33.2714 20.0154L33.2714 20.0714C33.2714 20.0714 34.4948 19.3304 34.9522 28.136L38.3684 30.4137L38.3684 30.045C38.3684 29.4942 38.8248 29.0476 39.3877 29.0476C39.9507 29.0476 40.4072 29.4942 40.4072 30.045L40.4072 31.8275L41.9362 32.9245L41.9362 32.7877C41.9362 32.2369 42.3926 31.7904 42.9556 31.7904C43.5186 31.7904 43.975 32.2369 43.975 32.7877L43.975 34.4596C45.6291 35.7515 46.9776 36.945 47.5429 37.7745C47.5429 37.7745 47.5429 39.5198 46.5234 39.5198C46.5234 39.5198 38.9255 35.4651 35.101 34.031C35.1769 43.0106 34.5457 43.0106 34.5457 43.0106C34.5457 43.0106 38.3684 45.0053 38.3684 47L33.2714 45.504L33.2714 45.4478L28.1744 46.9439C28.1744 44.9492 31.9971 42.9545 31.9971 42.9545C31.9971 42.9545 31.3659 42.9545 31.4418 33.9748C27.6173 35.4089 20.0194 39.4637 20.0194 39.4637C18.9999 39.4637 19 37.7184 19 37.7184C19.5651 36.889 20.9137 35.6955 22.5678 34.4035L22.5678 32.7316C22.5678 32.1808 23.0242 31.7342 23.5872 31.7342C24.1502 31.7342 24.6066 32.1808 24.6066 32.7316L24.6066 32.8683L26.1357 31.7715L26.1357 29.9889C26.1357 29.438 26.592 28.9915 27.1551 28.9915C27.718 28.9915 28.1744 29.438 28.1744 29.9889L28.1744 30.3576L31.5906 28.0799C32.048 19.2744 33.2714 20.0154 33.2714 20.0154Z" fill="white"/>
<defs>
<filter id="filter0_d_831_468" x="0" y="0" width="67" height="67" filterUnits="userSpaceOnUse" color-interpolation-filters="sRGB">
<feFlood flood-opacity="0" result="BackgroundImageFix"/>
<feColorMatrix in="SourceAlpha" type="matrix" values="0 0 0 0 0 0 0 0 0 0 0 0 0 0 0 0 0 0 127 0" result="hardAlpha"/>
<feOffset/>
<feGaussianBlur stdDeviation="3"/>
<feComposite in2="hardAlpha" operator="out"/>
<feColorMatrix type="matrix" values="0 0 0 0 0 0 0 0 0 0 0 0 0 0 0 0 0 0 0.25 0"/>
<feBlend mode="normal" in2="BackgroundImageFix" result="effect1_dropShadow_831_468"/>
<feBlend mode="normal" in="SourceGraphic" in2="effect1_dropShadow_831_468" result="shape"/>
</filter>
</defs>
</svg>
