<svg width="34" height="146" viewBox="0 0 34 146" fill="none" xmlns="http://www.w3.org/2000/svg">
<rect x="16" width="2" height="146" rx="1" fill="url(#paint0_linear_515_194)"/>
<g filter="url(#filter0_d_515_194)">
<path fill-rule="evenodd" clip-rule="evenodd" d="M17.8189 90.0927C18.3622 89.5494 18.6674 88.8126 18.6674 88.0442L18.6674 83.1354C18.6674 82.7139 18.8886 82.3233 19.25 82.1064L31.3953 74.8192L31.3953 73.09C31.3953 72.4273 30.8581 71.89 30.1953 71.89C30.0664 71.89 29.9382 71.9108 29.8159 71.9516L18.6674 75.6678L18.6674 68.8795L22.3856 65.1613C22.707 64.8399 22.8193 64.3645 22.6755 63.9333L22.0615 62.0913L16.9704 63.7884L11.8792 62.0913L11.2652 63.9333C11.1215 64.3645 11.2337 64.8399 11.5551 65.1613L15.2733 68.8795L15.2733 75.6678L4.12485 71.9516C3.49612 71.742 2.81653 72.0818 2.60696 72.7106C2.56617 72.8329 2.54538 72.9611 2.54538 73.09V74.8192L14.6907 82.1064C15.0521 82.3233 15.2733 82.7139 15.2733 83.1354L15.2733 88.0442C15.2733 88.8126 15.5785 89.5494 16.1218 90.0927C16.5905 90.5614 17.3503 90.5614 17.8189 90.0927Z" fill="#E61C39"/>
</g>
<defs>
<filter id="filter0_d_515_194" x="0.54541" y="62.0913" width="32.8501" height="32.3528" filterUnits="userSpaceOnUse" color-interpolation-filters="sRGB">
<feFlood flood-opacity="0" result="BackgroundImageFix"/>
<feColorMatrix in="SourceAlpha" type="matrix" values="0 0 0 0 0 0 0 0 0 0 0 0 0 0 0 0 0 0 127 0" result="hardAlpha"/>
<feOffset dy="2"/>
<feGaussianBlur stdDeviation="1"/>
<feComposite in2="hardAlpha" operator="out"/>
<feColorMatrix type="matrix" values="0 0 0 0 0 0 0 0 0 0 0 0 0 0 0 0 0 0 0.25 0"/>
<feBlend mode="normal" in2="BackgroundImageFix" result="effect1_dropShadow_515_194"/>
<feBlend mode="normal" in="SourceGraphic" in2="effect1_dropShadow_515_194" result="shape"/>
</filter>
<linearGradient id="paint0_linear_515_194" x1="17" y1="0" x2="17" y2="146" gradientUnits="userSpaceOnUse">
<stop stop-opacity="0.2"/>
<stop offset="0.479167"/>
<stop offset="1" stop-opacity="0.2"/>
</linearGradient>
</defs>
</svg>
