<svg width="32" height="32" viewBox="0 0 32 32" fill="none" xmlns="http://www.w3.org/2000/svg">
<path d="M30 28.1698C30 28.3883 29.877 28.5886 29.6309 28.7707C29.3848 28.9528 29.0065 29.1031 28.4961 29.2215C27.9857 29.3398 27.4616 29.4491 26.9238 29.5493C26.3861 29.6494 25.6979 29.7268 24.8594 29.7815C24.0208 29.8361 23.2917 29.8771 22.6719 29.9044C22.0521 29.9317 21.2546 29.9545 20.2793 29.9727C19.304 29.9909 18.5658 30 18.0645 30H13.9355L11.7207 29.9727L9.32812 29.9044L7.14062 29.7815L5.07617 29.5493L3.50391 29.2215L2.36914 28.7707L2 28.1698C2.03646 26.5672 3.03906 25.1512 5.00781 23.922C6.97656 22.6927 9.47396 21.8777 12.5 21.4771V20.5756C11.5521 20.1567 10.7318 19.5649 10.0391 18.8C9.34635 18.0351 8.79948 17.1382 8.39844 16.1093C7.9974 15.0803 7.70573 13.9785 7.52344 12.8039C7.34115 11.6293 7.25 10.359 7.25 8.99317C7.25 7.82764 7.47786 6.78959 7.93359 5.87902C8.38932 4.96846 9.01823 4.23545 9.82031 3.68C10.6224 3.12455 11.543 2.70569 12.582 2.42341C13.6211 2.14114 14.7604 2 16 2C17.2396 2 18.3789 2.14114 19.418 2.42341C20.457 2.70569 21.3776 3.12455 22.1797 3.68C22.9818 4.23545 23.6107 4.96846 24.0664 5.87902C24.5221 6.78959 24.75 7.82764 24.75 8.99317C24.75 15.3672 23 19.2462 19.5 20.6302V21.4771C22.526 21.8777 25.0234 22.6927 26.9922 23.922C28.9609 25.1512 29.9635 26.5672 30 28.1698Z" stroke="#E61C39" stroke-width="3" stroke-linejoin="round"/>
</svg>
