<svg width="10" height="10" viewBox="0 0 10 10" fill="none" xmlns="http://www.w3.org/2000/svg">
<path d="M8.07951 2.97294L6.81239 4.24007L7.5189 4.94658L9.99219 2.47329L7.5189 0L6.81239 0.706511L8.07951 1.97363H4.49599C3.43586 1.97363 2.41915 2.39477 1.66952 3.1444C0.919894 3.89402 0.498758 4.91073 0.498758 5.97087C0.498758 7.031 0.919894 8.04771 1.66952 8.79734C2.41915 9.54696 3.43586 9.9681 4.49599 9.9681H8.99288V8.96879H4.49599C3.70089 8.96879 2.93836 8.65294 2.37614 8.09072C1.81392 7.5285 1.49807 6.76597 1.49807 5.97087C1.49807 5.17577 1.81392 4.41323 2.37614 3.85101C2.93836 3.28879 3.70089 2.97294 4.49599 2.97294H8.07951Z" fill="black"/>
</svg>
