<svg width="35" height="37" viewBox="0 0 35 37" fill="none" xmlns="http://www.w3.org/2000/svg">
<path d="M34.9801 18.5H34.9074C34.9074 18.5 35.868 20.0858 24.4534 20.6788L21.5007 25.1071H21.9788C22.6927 25.1071 23.2716 25.6988 23.2716 26.4285C23.2716 27.1584 22.6927 27.75 21.9788 27.75H19.668L18.2461 29.7322H18.4233C19.1373 29.7322 19.7162 30.3237 19.7162 31.0536C19.7162 31.7833 19.1373 32.375 18.4233 32.375H16.2561C14.5813 34.5193 13.0342 36.2673 11.959 37C11.959 37 9.6965 37 9.6965 35.6785C9.6965 35.6785 14.9527 25.8293 16.8117 20.8717C5.17144 20.9701 5.17144 20.1518 5.17144 20.1518C5.17144 20.1518 2.58576 25.1071 0 25.1071L1.9393 18.5H2.01205L0.0727543 11.8928C2.65843 11.8928 5.24419 16.8481 5.24419 16.8481C5.24419 16.8481 5.24419 16.0298 16.8845 16.1282C15.0254 11.1706 9.76925 1.3214 9.76925 1.3214C9.76925 -8.29751e-05 12.0317 0 12.0317 0C13.1069 0.732601 14.654 2.48073 16.3288 4.62495H18.4961C19.2101 4.62495 19.7889 5.21659 19.7889 5.94635C19.7889 6.6762 19.2101 7.26784 18.4961 7.26784H18.3188L19.7407 9.24998H22.0514C22.7655 9.24998 23.3443 9.84154 23.3443 10.5714C23.3443 11.3011 22.7655 11.8928 22.0514 11.8928H21.5734L24.5261 16.3211C35.9406 16.9141 34.9801 18.5 34.9801 18.5Z" fill="#E61C39"/>
</svg>
