<svg width="67" height="67" viewBox="0 0 67 67" fill="none" xmlns="http://www.w3.org/2000/svg">
<g filter="url(#filter0_d_1037_289)">
<rect x="6" y="6" width="55" height="55" rx="14" fill="#E61C39"/>
</g>
<path d="M40.7107 28.3667C40.8339 28.9942 40.8984 29.6568 40.8984 30.3253C40.8984 34.9169 37.9194 38.6406 34.2485 38.6406C30.5776 38.6406 27.5986 34.9169 27.5986 30.3253C27.5986 29.7565 27.6455 29.2053 27.7335 28.6716" stroke="white" stroke-width="1.17282" stroke-miterlimit="10"/>
<path d="M37.1748 22.8662C37.2217 22.8897 37.2686 22.919 37.3097 22.9483C37.3918 23.0011 37.4739 23.0539 37.5501 23.1125" stroke="white" stroke-width="1.17282" stroke-miterlimit="10"/>
<path d="M45.5811 37.6104L47.2397 35.9518L51.5643 40.2764L49.9057 41.935L45.5811 37.6104Z" stroke="white" stroke-width="1.17282" stroke-miterlimit="10" stroke-linecap="round" stroke-linejoin="round"/>
<path d="M44.6293 37.4569C45.9248 37.4569 46.975 36.4067 46.975 35.1113C46.975 33.8158 45.9248 32.7656 44.6293 32.7656C43.3339 32.7656 42.2837 33.8158 42.2837 35.1113C42.2837 36.4067 43.3339 37.4569 44.6293 37.4569Z" stroke="white" stroke-width="1.17282" stroke-miterlimit="10" stroke-linecap="round" stroke-linejoin="round"/>
<path d="M50.8628 41.2139L52.5318 42.8828" stroke="white" stroke-width="1.17282" stroke-miterlimit="10" stroke-linecap="round" stroke-linejoin="round"/>
<path d="M47.6968 39.9214V47.662" stroke="white" stroke-width="1.17282" stroke-miterlimit="10" stroke-linecap="round" stroke-linejoin="round"/>
<path d="M37.6578 22.9458C40.1203 23.0445 40.8621 25.2458 40.7274 28.3562L40.7258 28.3565C39.1413 29.557 36.4434 24.8088 36.4434 24.8088L37.6578 22.9458Z" stroke="white" stroke-width="1.17282" stroke-miterlimit="10" stroke-linecap="round" stroke-linejoin="round"/>
<path d="M32.8252 41.9351C32.8252 41.9351 32.1179 45.4661 34.1783 45.4661C36.2386 45.4661 35.5312 41.9351 35.5312 41.9351" stroke="white" stroke-width="1.17282" stroke-miterlimit="10" stroke-linecap="round" stroke-linejoin="round"/>
<path d="M33.6796 45.4664L32.2633 47.5996C30.1347 46.5712 28.9372 39.9985 28.9372 39.9985L25.9438 44.065L27.6878 45.1452L27.1023 46.9709L32.3031 47.5996" stroke="white" stroke-width="1.17282" stroke-miterlimit="10" stroke-linecap="round" stroke-linejoin="round"/>
<path d="M34.6772 45.4664L36.0935 47.5996C38.222 46.5712 39.4196 39.9985 39.4196 39.9985L42.4129 44.065L40.6689 45.1452L41.2545 46.9709L36.0537 47.5996" stroke="white" stroke-width="1.17282" stroke-miterlimit="10" stroke-linecap="round" stroke-linejoin="round"/>
<path d="M36.0862 24.8743L37.3074 22.6225C37.3074 22.6225 35.8647 18.4325 30.6637 20.6449C29.4288 21.1702 28.3298 21.9652 27.3703 22.9034C27.3703 22.9034 25.7064 24.3003 25.0711 25.2695C25.0711 25.2695 24.0819 25.1028 23.1553 24.2352C23.1553 24.2352 22.9002 28.1309 27.598 28.6786C27.598 28.6786 29.2742 28.6916 31.2287 27.0254" stroke="white" stroke-width="1.17282" stroke-miterlimit="10" stroke-linecap="round" stroke-linejoin="round"/>
<path d="M36.0946 24.809C36.0926 24.5375 34.1644 28.4346 27.9336 26.4746" stroke="white" stroke-width="1.17282" stroke-miterlimit="10" stroke-linecap="round" stroke-linejoin="round"/>
<path d="M23.0733 47.6218C23.0733 47.6218 21.9005 39.9985 28.9374 39.9985C30.8091 41.2464 32.4127 42.1087 34.2151 42.105H34.1418C35.9441 42.1087 37.5477 41.2464 39.4194 39.9985C46.4563 39.9985 45.2835 47.6218 45.2835 47.6218" stroke="white" stroke-width="1.17282" stroke-miterlimit="10" stroke-linecap="round" stroke-linejoin="round"/>
<path d="M37.769 29.5293C37.769 30.177 37.2433 30.7021 36.5962 30.7021C35.9491 30.7021 35.4233 30.177 35.4233 29.5293C35.4233 28.8822 35.9491 28.3564 36.5962 28.3564C37.2433 28.3564 37.769 28.8822 37.769 29.5293Z" fill="white"/>
<path d="M33.0776 29.5293C33.0776 30.177 32.5519 30.7021 31.9048 30.7021C31.2576 30.7021 30.7319 30.177 30.7319 29.5293C30.7319 28.8822 31.2576 28.3564 31.9048 28.3564C32.5519 28.3564 33.0776 28.8822 33.0776 29.5293Z" fill="white"/>
<path d="M34.2502 35.395C33.5747 35.395 32.8993 35.2272 32.2286 34.8919C31.9389 34.747 31.8215 34.3949 31.9663 34.1051C32.1109 33.8156 32.4626 33.6979 32.7532 33.8428C33.7605 34.3467 34.7398 34.3467 35.7471 33.8428C36.0371 33.6979 36.389 33.8156 36.5339 34.1051C36.6788 34.3949 36.5614 34.747 36.2716 34.8919C35.6011 35.2272 34.9256 35.395 34.2502 35.395Z" fill="white"/>
<defs>
<filter id="filter0_d_1037_289" x="0" y="0" width="67" height="67" filterUnits="userSpaceOnUse" color-interpolation-filters="sRGB">
<feFlood flood-opacity="0" result="BackgroundImageFix"/>
<feColorMatrix in="SourceAlpha" type="matrix" values="0 0 0 0 0 0 0 0 0 0 0 0 0 0 0 0 0 0 127 0" result="hardAlpha"/>
<feOffset/>
<feGaussianBlur stdDeviation="3"/>
<feComposite in2="hardAlpha" operator="out"/>
<feColorMatrix type="matrix" values="0 0 0 0 0 0 0 0 0 0 0 0 0 0 0 0 0 0 0.25 0"/>
<feBlend mode="normal" in2="BackgroundImageFix" result="effect1_dropShadow_1037_289"/>
<feBlend mode="normal" in="SourceGraphic" in2="effect1_dropShadow_1037_289" result="shape"/>
</filter>
</defs>
</svg>
