<svg width="67" height="67" viewBox="0 0 67 67" fill="none" xmlns="http://www.w3.org/2000/svg">
<g filter="url(#filter0_d_2_2265)">
<rect x="6" y="6" width="55" height="55" rx="14" fill="#E61C39"/>
</g>
<path d="M19.5725 35.5135C19.3955 35.6371 19.2707 35.8221 19.2222 36.0325C19.1737 36.243 19.2051 36.4639 19.3102 36.6526L21.4487 40.357C21.6682 40.7367 22.1715 40.8935 22.5658 40.7004L29.097 37.5358V48.9H32.3972V35.9345L39.1149 32.6774L34.7916 25.1827L19.5725 35.5135ZM48.0024 22.548C47.1131 21.0095 45.6496 19.8872 43.9335 19.4279C42.2175 18.9685 40.3893 19.2096 38.8508 20.0982C37.3492 20.9649 36.3625 22.3416 35.879 23.8769L40.7897 32.3885C42.359 32.7385 44.0454 32.5701 45.5503 31.7034C47.089 30.8146 48.2118 29.3507 48.6717 27.6338C49.1315 25.9168 48.8908 24.0874 48.0024 22.548V22.548Z" fill="white"/>
<defs>
<filter id="filter0_d_2_2265" x="0" y="0" width="67" height="67" filterUnits="userSpaceOnUse" color-interpolation-filters="sRGB">
<feFlood flood-opacity="0" result="BackgroundImageFix"/>
<feColorMatrix in="SourceAlpha" type="matrix" values="0 0 0 0 0 0 0 0 0 0 0 0 0 0 0 0 0 0 127 0" result="hardAlpha"/>
<feOffset/>
<feGaussianBlur stdDeviation="3"/>
<feComposite in2="hardAlpha" operator="out"/>
<feColorMatrix type="matrix" values="0 0 0 0 0 0 0 0 0 0 0 0 0 0 0 0 0 0 0.25 0"/>
<feBlend mode="normal" in2="BackgroundImageFix" result="effect1_dropShadow_2_2265"/>
<feBlend mode="normal" in="SourceGraphic" in2="effect1_dropShadow_2_2265" result="shape"/>
</filter>
</defs>
</svg>
