<svg width="14" height="13" viewBox="0 0 14 13" fill="none" xmlns="http://www.w3.org/2000/svg">
<path fill-rule="evenodd" clip-rule="evenodd" d="M12.4473 4.77286L14 6.5L12.4473 8.22714L12.6636 10.5114L10.3664 11.019L9.16364 12.9938L7 12.09L4.83636 13L3.63364 11.0252L1.33636 10.5176L1.55273 8.22714L0 6.5L1.55273 4.76667L1.33636 2.47619L3.63364 1.97476L4.83636 0L7 0.90381L9.16364 0L10.3664 1.98095L12.6636 2.48857L12.4473 4.77286ZM9.81748 4.56263L7.87915 6.50047L9.81559 8.43738C10.0594 8.68126 10.0594 9.07403 9.81796 9.31744C9.5746 9.56085 9.18193 9.56085 8.93857 9.31744L7.00024 7.37959L5.0619 9.31744C4.82044 9.56085 4.42634 9.56085 4.18252 9.31744C3.93916 9.07403 3.93916 8.68126 4.18252 8.43785L6.12085 6.5L4.18252 4.56215C3.93916 4.31874 3.93916 3.92597 4.18252 3.68256C4.42587 3.43915 4.81855 3.43915 5.0619 3.68256L6.99976 5.62088L8.9381 3.68303C9.18145 3.43962 9.57413 3.43962 9.81748 3.68303C10.0608 3.92644 10.0608 4.31921 9.81748 4.56263Z" fill="#E61C39"/>
</svg>
