<svg width="28" height="41" viewBox="0 0 28 41" fill="none" xmlns="http://www.w3.org/2000/svg">
<path d="M14 0C6.26 0 0 6.4165 0 14.35C0 17.917 1 21.2585 2.82 24.272C4.72 27.429 7.22 30.135 9.14 33.292C10.08 34.8295 10.76 36.2645 11.48 37.925C12 39.0525 12.42 41 14 41C15.58 41 16 39.0525 16.5 37.925C17.24 36.2645 17.9 34.8295 18.84 33.292C20.76 30.1555 23.26 27.4495 25.16 24.272C27 21.2585 28 17.917 28 14.35C28 6.4165 21.74 0 14 0ZM14 19.9875C11.24 19.9875 9 17.6915 9 14.8625C9 12.0335 11.24 9.7375 14 9.7375C16.76 9.7375 19 12.0335 19 14.8625C19 17.6915 16.76 19.9875 14 19.9875Z" fill="#E61C39"/>
</svg>
