<svg width="67" height="67" viewBox="0 0 67 67" fill="none" xmlns="http://www.w3.org/2000/svg">
<g filter="url(#filter0_d_823_280)">
<rect x="6" y="6" width="55" height="55" rx="14" fill="#E61C39"/>
</g>
<path d="M48.6606 28.3179L42.1605 34.6922C41.4753 35.3641 40.3333 34.8659 40.3333 33.8743V30.501C33.8074 30.5465 31.0543 32.147 32.8956 38.5332C33.0979 39.2351 32.3157 39.7785 31.7668 39.3455C30.0079 37.958 28.4167 35.3041 28.4167 32.6253C28.4167 25.8782 33.725 24.5393 40.3333 24.5013V21.1256C40.3333 20.133 41.4761 19.6364 42.1605 20.3077L48.6606 26.6821C49.1129 27.1257 49.1133 27.8739 48.6606 28.3179ZM40.3333 37.7716V41H25.8889V26H28.1872C28.2601 26 28.3323 25.9846 28.3994 25.9549C28.4665 25.9251 28.5271 25.8816 28.5775 25.8269C29.2525 25.0971 30.0327 24.5196 30.8803 24.0608C31.3827 23.7889 31.1965 23 30.63 23H25.1667C23.97 23 23 24.0074 23 25.25V41.75C23 42.9927 23.97 44 25.1667 44H41.0556C42.2522 44 43.2222 42.9927 43.2222 41.75V37.5872C43.2222 37.1987 42.8522 36.9279 42.4995 37.0574C42.005 37.2391 41.4754 37.2934 40.9562 37.2157C40.6281 37.1667 40.3333 37.4273 40.3333 37.7716Z" fill="white"/>
<defs>
<filter id="filter0_d_823_280" x="0" y="0" width="67" height="67" filterUnits="userSpaceOnUse" color-interpolation-filters="sRGB">
<feFlood flood-opacity="0" result="BackgroundImageFix"/>
<feColorMatrix in="SourceAlpha" type="matrix" values="0 0 0 0 0 0 0 0 0 0 0 0 0 0 0 0 0 0 127 0" result="hardAlpha"/>
<feOffset/>
<feGaussianBlur stdDeviation="3"/>
<feComposite in2="hardAlpha" operator="out"/>
<feColorMatrix type="matrix" values="0 0 0 0 0 0 0 0 0 0 0 0 0 0 0 0 0 0 0.25 0"/>
<feBlend mode="normal" in2="BackgroundImageFix" result="effect1_dropShadow_823_280"/>
<feBlend mode="normal" in="SourceGraphic" in2="effect1_dropShadow_823_280" result="shape"/>
</filter>
</defs>
</svg>
